<?xml version="1.0" encoding="UTF-8"?>
<svg version="1.1" xmlns="http://www.w3.org/2000/svg" width="512" height="512">
<path d="M0 0 C1.01790619 0.00215515 2.03581238 0.0043103 3.08456421 0.00653076 C17.69363523 0.05620146 32.02575853 0.30709809 46.375 3.3125 C47.34985352 3.51117676 48.32470703 3.70985352 49.32910156 3.91455078 C108.89482498 16.37463238 165.24866419 48.2648637 202.375 97.3125 C202.79023926 97.85132812 203.20547852 98.39015625 203.63330078 98.9453125 C228.13415115 130.81517547 244.62642134 167.36831241 252.6875 206.75 C252.83485596 207.46889404 252.98221191 208.18778809 253.1340332 208.9284668 C256.10789088 224.57475609 256.74800362 240.04818046 256.6875 255.9375 C256.68534485 256.95540619 256.6831897 257.97331238 256.68096924 259.02206421 C256.63129854 273.63113523 256.38040191 287.96325853 253.375 302.3125 C253.07698486 303.77478027 253.07698486 303.77478027 252.77294922 305.26660156 C242.52138226 354.27446698 220.18217348 398.27864199 185.375 434.3125 C184.77606934 434.93334473 184.17713867 435.55418945 183.56005859 436.19384766 C175.89623497 444.09500259 168.15501606 451.64016955 159.375 458.3125 C158.83472168 458.72918945 158.29444336 459.14587891 157.73779297 459.57519531 C125.8687531 484.07334707 89.31685217 500.56439938 49.9375 508.625 C49.21860596 508.77235596 48.49971191 508.91971191 47.7590332 509.0715332 C33.08339502 511.86090125 18.55831162 512.66142619 3.64770508 512.62817383 C0.70811513 512.6250221 -2.2304558 512.64854926 -5.16992188 512.67382812 C-18.54306192 512.71848737 -31.43916711 511.51301542 -44.625 509.3125 C-46.33055054 509.03031616 -46.33055054 509.03031616 -48.07055664 508.74243164 C-50.6662622 508.27617402 -53.23774939 507.7574418 -55.8125 507.1875 C-57.20142456 506.88054199 -57.20142456 506.88054199 -58.6184082 506.56738281 C-103.71300222 496.08183329 -144.40193368 473.34639441 -177.625 441.3125 C-178.58889648 440.38945068 -178.58889648 440.38945068 -179.57226562 439.44775391 C-188.74836539 430.62136647 -197.09816554 421.58141996 -204.625 411.3125 C-205.26211914 410.45857666 -205.26211914 410.45857666 -205.91210938 409.58740234 C-212.42768015 400.84658179 -218.26088547 391.80163672 -223.625 382.3125 C-224.0271875 381.60528809 -224.429375 380.89807617 -224.84375 380.16943359 C-237.8691741 357.03404164 -246.61801461 331.86287591 -251.9375 305.875 C-252.08485596 305.15610596 -252.23221191 304.43721191 -252.3840332 303.6965332 C-255.35789088 288.05024391 -255.99800362 272.57681954 -255.9375 256.6875 C-255.93534485 255.66959381 -255.9331897 254.65168762 -255.93096924 253.60293579 C-255.88129854 238.99386477 -255.63040191 224.66174147 -252.625 210.3125 C-252.42632324 209.33764648 -252.22764648 208.36279297 -252.02294922 207.35839844 C-241.90232806 158.9765226 -219.9858123 114.98821731 -185.625 79.3125 C-184.99287598 78.65314453 -184.36075195 77.99378906 -183.70947266 77.31445312 C-174.56502521 67.82619695 -165.26765991 59.0862956 -154.625 51.3125 C-153.47394983 50.45443848 -152.32290823 49.59636549 -151.171875 48.73828125 C-142.98224019 42.70072604 -134.47961724 37.31792698 -125.625 32.3125 C-124.91778809 31.9103125 -124.21057617 31.508125 -123.48193359 31.09375 C-100.34654164 18.0683259 -75.17537591 9.31948539 -49.1875 4 C-48.46860596 3.85264404 -47.74971191 3.70528809 -47.0090332 3.5534668 C-31.36274391 0.57960912 -15.88931954 -0.06050362 0 0 Z M-133.625 122.3125 C-138.91430536 130.62607327 -140.94384329 139.09239182 -139.1640625 148.8359375 C-136.65064336 158.44606949 -131.12622869 165.24020556 -122.625 170.3125 C-114.26920624 174.83144969 -102.59103265 174.7740281 -93.515625 172.55078125 C-91.09222414 171.62181092 -88.88431035 170.58528887 -86.625 169.3125 C-85.5525 168.714375 -84.48 168.11625 -83.375 167.5 C-75.96594004 161.60642958 -71.48451145 154.70662259 -70.20703125 145.203125 C-69.76287773 135.1676563 -72.41834983 126.42140123 -79.1875 118.875 C-88.07290305 110.97869562 -97.8538172 109.35676983 -109.34375 109.90234375 C-119.3944387 110.69361508 -127.06431029 114.6056657 -133.625 122.3125 Z M52.375 200.3125 C51.43140625 200.71339844 50.4878125 201.11429688 49.515625 201.52734375 C39.52828299 206.39405702 30.07129455 214.75086272 24.375 224.3125 C24.375 224.9725 24.375 225.6325 24.375 226.3125 C23.715 226.3125 23.055 226.3125 22.375 226.3125 C22.375 217.7325 22.375 209.1525 22.375 200.3125 C2.245 200.3125 -17.885 200.3125 -38.625 200.3125 C-38.625 262.0225 -38.625 323.7325 -38.625 387.3125 C-18.495 387.3125 1.635 387.3125 22.375 387.3125 C22.41238281 379.19914063 22.44976562 371.08578125 22.48828125 362.7265625 C22.51856857 357.57680195 22.54972157 352.42707564 22.58398438 347.27734375 C22.63824725 339.10922954 22.68979968 330.94118617 22.72143555 322.77294922 C22.7469657 316.18519146 22.78793504 309.59764443 22.83818626 303.01002121 C22.85482977 300.50075502 22.86635966 297.99144937 22.87261391 295.48213577 C22.88228205 291.9587148 22.91037524 288.43587457 22.94262695 284.91259766 C22.94119186 283.88256622 22.93975677 282.85253479 22.9382782 281.79129028 C23.08715344 270.23857166 26.04088207 262.0192131 33.96875 253.625 C40.66795722 247.30499319 47.81150162 245.08510807 56.9375 244.875 C64.7651775 245.11172412 71.98941707 246.08335367 77.96484375 251.609375 C88.04645699 263.78550623 88.48766456 278.91744441 88.58032227 293.99462891 C88.59022186 295.01046051 88.60012146 296.02629211 88.61032104 297.07290649 C88.64163932 300.39493566 88.6665748 303.71697907 88.69140625 307.0390625 C88.71200147 309.35647938 88.73299858 311.67389272 88.75437927 313.99130249 C88.80933485 320.06403724 88.85886009 326.1368044 88.90722656 332.20959473 C88.96651333 339.51023366 89.03259414 346.81081393 89.09752655 354.11140442 C89.19520201 365.17840017 89.28428635 376.24543513 89.375 387.3125 C109.505 387.3125 129.635 387.3125 150.375 387.3125 C150.46531387 365.81755252 150.46531387 365.81755252 150.5257616 344.32257843 C150.54230094 336.62710423 150.56320262 328.93172898 150.60131836 321.23632812 C150.63476621 314.48004951 150.65191261 307.72387796 150.65963173 300.96752167 C150.66512441 298.40507069 150.67584824 295.84262478 150.69219017 293.28022003 C150.86547752 264.95172152 149.21194609 236.22986846 128.70239258 214.42504883 C116.26731371 201.88882036 99.68872672 196.18072723 82.31689453 195.93212891 C71.68556027 195.95001856 62.2916758 196.08332944 52.375 200.3125 Z M-135.625 200.3125 C-135.625 262.0225 -135.625 323.7325 -135.625 387.3125 C-115.495 387.3125 -95.365 387.3125 -74.625 387.3125 C-74.625 325.6025 -74.625 263.8925 -74.625 200.3125 C-94.755 200.3125 -114.885 200.3125 -135.625 200.3125 Z " fill="white" transform="translate(255.625,-0.3125)"/>
</svg>