<?xml version="1.0" encoding="UTF-8"?>
<svg version="1.1" xmlns="http://www.w3.org/2000/svg" width="512" height="512">
<path d="M0 0 C1.04172363 0.20399414 2.08344727 0.40798828 3.15673828 0.61816406 C43.64574006 8.81016648 80.42670843 25.61997699 113 51 C113.86625 51.67160156 114.7325 52.34320313 115.625 53.03515625 C127.63072135 62.59328262 139.16531122 73.20885448 149 85 C149.45294434 85.54060059 149.90588867 86.08120117 150.37255859 86.63818359 C157.90629693 95.68015799 164.74711574 105.03061271 171 115 C171.60642334 115.96147949 171.60642334 115.96147949 172.22509766 116.94238281 C205.37888531 170.0042118 219.15223402 237.20989742 207 299 C206.79600586 300.04172363 206.59201172 301.08344727 206.38183594 302.15673828 C198.18983352 342.64574006 181.38002301 379.42670843 156 412 C155.32839844 412.86625 154.65679687 413.7325 153.96484375 414.625 C149.36718833 420.39999896 144.46501928 425.84836866 139.4375 431.25 C138.51783447 432.24241699 138.51783447 432.24241699 137.57958984 433.25488281 C133.29262014 437.81014489 128.75412237 441.94004997 124 446 C123.02417969 446.86882812 122.04835938 447.73765625 121.04296875 448.6328125 C74.8363663 488.96087319 15.52696094 509.21267557 -45.3125 509.25 C-46.29898529 509.25067474 -47.28547058 509.25134949 -48.30184937 509.25204468 C-62.42024919 509.23668564 -76.13365088 508.88264884 -90 506 C-90.99306152 505.80180664 -91.98612305 505.60361328 -93.00927734 505.39941406 C-111.70042558 501.64001275 -111.70042558 501.64001275 -119 499 C-117.63549173 494.27780122 -115.55851552 490.4241272 -112.9375 486.3125 C-105.77764332 474.64820395 -99.87335552 462.50298611 -95.75390625 449.43359375 C-95.46112289 448.50799652 -95.16833954 447.58239929 -94.86668396 446.62875366 C-90.75724569 433.32579158 -87.47169611 419.78969543 -84.10235596 406.28497314 C-83.18854729 402.62880866 -82.26673325 398.97466315 -81.34570312 395.3203125 C-79.55620855 388.21543321 -77.77520655 381.10846441 -76 374 C-75.01 374 -74.02 374 -73 374 C-71.7109375 375.46875 -71.7109375 375.46875 -70.375 377.5 C-64.20429427 386.08137455 -56.44449703 391.46457987 -47 396 C-45.62908203 396.680625 -45.62908203 396.680625 -44.23046875 397.375 C-20.89076891 408.10296053 7.1098407 405.39446291 30.671875 396.734375 C41.56410737 392.48924753 51.73412491 387.15927443 61 380 C61.80566406 379.39671875 62.61132812 378.7934375 63.44140625 378.171875 C97.099531 352.25669913 115.94047043 310.30472885 122 269 C122.2616394 267.28937378 122.2616394 267.28937378 122.52856445 265.54418945 C123.91252534 255.69415065 124.34192662 246.00623802 124.31567383 236.06420898 C124.31250667 233.56775425 124.33611781 231.07248222 124.36132812 228.57617188 C124.41912596 214.2064292 122.6808959 200.40898449 118 186.75 C117.70657715 185.88576416 117.4131543 185.02152832 117.11083984 184.13110352 C110.13514953 164.52237081 99.23524444 148.05977308 85 133 C84.25363281 132.18917969 83.50726563 131.37835938 82.73828125 130.54296875 C72.07246608 119.34827018 59.40087988 111.15002922 45.8046875 103.95947266 C44.21237397 103.11290986 42.63605521 102.23640857 41.0625 101.35546875 C21.2037724 90.66447761 -3.07453681 84.98991664 -25.58203125 84.76171875 C-26.38545456 84.75187958 -27.18887787 84.74204041 -28.01664734 84.73190308 C-81.57405043 84.21221276 -132.39465981 97.41473762 -171.60205078 135.55859375 C-193.45462966 157.52759188 -208.63562737 184.64731307 -215 215 C-215.18546387 215.8760791 -215.37092773 216.7521582 -215.56201172 217.65478516 C-217.19727789 226.25999043 -217.39781422 234.77543288 -217.375 243.5 C-217.37478851 244.24778717 -217.37457703 244.99557434 -217.37435913 245.76602173 C-217.34017916 257.90023404 -216.38584873 269.29002687 -213 281 C-212.81808105 281.66402832 -212.63616211 282.32805664 -212.44873047 283.01220703 C-208.45714729 297.33410737 -202.08079577 310.98469259 -192 322 C-191.39800781 322.69351562 -190.79601562 323.38703125 -190.17578125 324.1015625 C-183.40884765 331.45014029 -172.63437679 339.65684258 -162.375 340.1875 C-159.00822242 340.14891714 -159.00822242 340.14891714 -156 339 C-155.4801689 336.9899864 -154.98689744 334.970494 -154.60546875 332.9296875 C-154.01255839 330.06076642 -153.24517524 327.27318244 -152.43334961 324.45947266 C-149.20378021 313.44517909 -149.20378021 313.44517909 -151.5625 302.5625 C-152.85718259 300.56538324 -154.24961724 298.65633267 -155.6484375 296.73046875 C-170.60900691 275.98819457 -172.27990575 251.12931362 -168.4453125 226.44921875 C-165.8839831 212.36190703 -161.09137965 199.40007022 -154 187 C-153.45730469 186.030625 -152.91460937 185.06125 -152.35546875 184.0625 C-147.51096769 175.95297024 -141.29297853 168.99766685 -135 162 C-134.01580078 160.87078125 -134.01580078 160.87078125 -133.01171875 159.71875 C-112.93033609 137.98989248 -80.85817344 127.2118918 -52 126 C-29.58335538 125.22583452 -6.08689184 127.16731565 14 138 C14.97066406 138.51304687 15.94132812 139.02609375 16.94140625 139.5546875 C38.30195466 151.39437844 53.01155673 170.41844866 60.1875 193.6875 C71.43465383 235.67080298 61.54952414 285.4633833 41 323 C31.01224026 340.0395901 16.23098524 354.93216817 -3.17578125 360.33984375 C-14.9212756 362.36741121 -28.31188318 362.86654783 -39 357 C-39.78246094 356.5875 -40.56492187 356.175 -41.37109375 355.75 C-49.64268532 350.8400502 -55.95799259 343.12602223 -59 334 C-64.31906163 310.6660143 -52.00987723 284.21751221 -45.17675781 262.08447266 C-41.45490338 249.96507287 -37.79533945 237.72543121 -37 225 C-36.92072266 223.948125 -36.92072266 223.948125 -36.83984375 222.875 C-36.41104836 212.43476449 -39.44559161 201.29296111 -46.3125 193.3125 C-55.99509375 184.98096584 -64.11192544 183.09380726 -77 184 C-87.94415814 185.80882614 -97.11731239 192.47469859 -104 201 C-109.41652994 209.11984379 -113.56148586 217.50262914 -116 227 C-116.22429687 227.87140625 -116.44859375 228.7428125 -116.6796875 229.640625 C-120.36421265 247.30615656 -119.27230297 267.70447509 -111.671875 284.14453125 C-109.91581327 291.6077936 -112.49675679 299.90869208 -114.28149414 307.20263672 C-114.51262909 308.17039536 -114.74376404 309.13815399 -114.98190308 310.13523865 C-115.74360811 313.31820637 -116.5144549 316.49888731 -117.28515625 319.6796875 C-117.82572752 321.93312033 -118.36562643 324.18671454 -118.90489197 326.44046021 C-120.32813955 332.38241677 -121.75871995 338.32258111 -123.19140625 344.26226807 C-132.37792923 382.1799806 -132.37792923 382.1799806 -141.17577934 420.18899918 C-141.50558282 421.65437702 -141.837336 423.11931791 -142.17137337 424.58373642 C-144.98685386 436.96033476 -147.20048592 449.39727364 -147.4140625 462.12109375 C-147.43342865 462.87673111 -147.4527948 463.63236847 -147.4727478 464.41090393 C-147.53108146 466.75299892 -147.57832312 469.09514706 -147.625 471.4375 C-147.66331552 473.0553564 -147.70237427 474.67319538 -147.7421875 476.29101562 C-147.83665507 480.1938636 -147.92119936 484.09680558 -148 488 C-172.01735937 480.66927327 -194.57596458 464.74206589 -213 448 C-214.26119089 446.91214814 -215.52295723 445.82496325 -216.78515625 444.73828125 C-228.0816958 434.86414053 -239.02039118 424.04229683 -248 412 C-248.47179687 411.37754395 -248.94359375 410.75508789 -249.4296875 410.11376953 C-280.61996464 368.82738589 -301.93565492 318.49197969 -302.203125 266.12109375 C-302.21018463 265.19976654 -302.21724426 264.27843933 -302.22451782 263.32919312 C-302.45460589 224.4639257 -302.45460589 224.4639257 -299 207 C-298.79600586 205.95972656 -298.59201172 204.91945312 -298.38183594 203.84765625 C-287.38813044 149.5032256 -259.27398259 95.75502813 -216 60 C-215.10667969 59.20722656 -214.21335937 58.41445313 -213.29296875 57.59765625 C-156.75434178 7.69235882 -74.08403833 -14.5700773 0 0 Z " fill="white" transform="translate(302,3)"/>
</svg>