<?xml version="1.0" encoding="UTF-8"?>
<svg version="1.1" xmlns="http://www.w3.org/2000/svg" width="512" height="512">
<path d="M0 0 C19.49727029 -0.37438998 38.99380783 -0.6562067 58.49393177 -0.82899475 C67.54918139 -0.91137139 76.60219321 -1.02358558 85.65600586 -1.20703125 C93.55103619 -1.36692123 101.44444593 -1.46982353 109.34105033 -1.50541592 C113.52020399 -1.52621426 117.69472358 -1.57476439 121.87238503 -1.69168091 C147.27314225 -2.37564456 147.27314225 -2.37564456 153.45310593 1.56370544 C157.18762575 5.20559411 159.38688416 9.27067916 161.23275757 14.10824871 C162.29721007 16.73281601 163.84905895 18.89157425 165.53125 21.15625 C166.52097328 22.60407101 167.51055928 24.05198587 168.5 25.5 C173.87324586 33.35807178 179.2608907 41.20611179 184.65722656 49.04833984 C186.93908519 52.36491764 189.21945755 55.6825171 191.5 59 C192.41665976 60.33333808 193.33332642 61.66667142 194.25 63 C254.75 151 254.75 151 256.12646484 153.00219727 C257.03816572 154.32826343 257.94994885 155.65427306 258.86181641 156.98022461 C261.23015611 160.42427352 263.5968256 163.86945359 265.9609375 167.31640625 C266.44884766 168.02732422 266.93675781 168.73824219 267.43945312 169.47070312 C268.36316834 170.81668815 269.28638585 172.16301493 270.20898438 173.50976562 C273.09148695 177.70847943 276.02920469 181.86324739 279 186 C282.90768853 182.19306219 286.50997512 178.20074197 290.0625 174.0625 C290.62831787 173.40644775 291.19413574 172.75039551 291.77709961 172.07446289 C293.5204082 170.05164261 295.26066915 168.02624102 297 166 C297.52078125 165.39381836 298.0415625 164.78763672 298.578125 164.16308594 C302.05684625 160.11279645 305.52930238 156.05716533 309 152 C315.68901674 144.18069397 322.39748756 136.37934454 329.14208984 128.60791016 C334.79007108 122.09645732 340.39681312 115.54999602 346 109 C352.68901674 101.18069397 359.39748756 93.37934454 366.14208984 85.60791016 C371.79007108 79.09645732 377.39681312 72.54999602 383 66 C389.68901674 58.18069397 396.39748756 50.37934454 403.14208984 42.60791016 C409.84482474 34.88045138 416.49260853 27.10599326 423.13671875 19.328125 C423.65806396 18.718479 424.17940918 18.10883301 424.71655273 17.48071289 C425.69208599 16.33992452 426.66693528 15.19855063 427.64086914 14.05639648 C428.57536074 12.96391589 429.52937321 11.88789813 430.5 10.82739258 C432.10014572 8.99334532 432.10014572 8.99334532 433.3125 6.6003418 C435.30861561 3.459486 436.77002516 1.91395389 440 0 C447.67656886 -1.54084045 455.72630723 -0.84163666 463.5 -0.5625 C465.67960518 -0.51732096 467.85929991 -0.47626239 470.0390625 -0.43945312 C475.36133845 -0.34062547 480.68025291 -0.19035409 486 0 C485.05742609 1.27167386 484.11276224 2.5417988 483.16723633 3.8112793 C482.37848869 4.87248238 482.37848869 4.87248238 481.57380676 5.9551239 C479.42764096 8.74367664 477.10406499 11.25273116 474.6875 13.8125 C470.32812917 18.48034136 466.25215213 23.3079322 462.24609375 28.28515625 C459.9116941 31.10673495 457.48009402 33.80590712 455 36.5 C450.88621091 40.9698512 447.02912703 45.59044893 443.21484375 50.31640625 C440.33519113 53.80550916 437.29306124 57.12996921 434.24609375 60.47265625 C431.93812402 63.06962393 429.74444137 65.73404013 427.5625 68.4375 C423.70291397 73.20996203 419.62800009 77.73109109 415.47265625 82.24609375 C412.25290481 85.83207284 409.24094824 89.56701492 406.21484375 93.31640625 C403.33519113 96.80550916 400.29306124 100.12996921 397.24609375 103.47265625 C394.93812402 106.06962393 392.74444137 108.73404013 390.5625 111.4375 C386.70291397 116.20996203 382.62800009 120.73109109 378.47265625 125.24609375 C375.25290481 128.83207284 372.24094824 132.56701492 369.21484375 136.31640625 C367.04367173 138.94708557 364.79758643 141.47942424 362.5 144 C359.38541332 147.41739372 356.4081338 150.9052235 353.5 154.5 C349.88850866 158.96420457 346.11339306 163.23002114 342.24609375 167.47265625 C339.93812402 170.06962393 337.74444137 172.73404013 335.5625 175.4375 C331.70291397 180.20996203 327.62800009 184.73109109 323.47265625 189.24609375 C320.26063676 192.82346143 317.25404284 196.54690668 314.2421875 200.29296875 C311.25347656 203.90129049 308.07070202 207.31167583 304.84765625 210.7109375 C302.85363909 213.18132662 301.6697245 214.88578108 301 218 C302.12936493 220.69180963 302.12936493 220.69180963 304.1875 223.3125 C305.31285156 224.89224609 305.31285156 224.89224609 306.4609375 226.50390625 C306.87311523 227.06867676 307.28529297 227.63344727 307.70996094 228.21533203 C309.50093633 230.69300617 311.21970114 233.21765582 312.94262695 235.74291992 C314.33710026 237.78604326 315.73964071 239.82340291 317.14453125 241.859375 C319.93399787 245.90329319 322.71758578 249.9512274 325.5 254 C326.41663902 255.33335234 327.33330572 256.66668565 328.25 258 C348.41666667 287.33333333 368.58333333 316.66666667 388.75 346 C389.20358887 346.6597583 389.65717773 347.3195166 390.12451172 347.99926758 C391.04283361 349.33502333 391.9611278 350.67079812 392.87939453 352.0065918 C395.14551157 355.30301745 397.41208059 358.59913027 399.6796875 361.89453125 C405.18518464 369.89670733 410.67634388 377.90854995 416.15917969 385.92626953 C420.98034499 392.97489904 425.81630573 400.013269 430.65722656 407.04833984 C432.93908519 410.36491764 435.21945755 413.6825171 437.5 417 C438.41665976 418.33333808 439.33332642 419.66667142 440.25 421 C453.08333333 439.66666667 465.91666667 458.33333333 478.75 477 C479.20431396 477.6607251 479.65862793 478.3214502 480.12670898 479.00219727 C481.03803869 480.32795922 481.94901214 481.65396615 482.85961914 482.98022461 C485.22999283 486.43155323 487.60746669 489.87768028 489.99609375 493.31640625 C490.48851562 494.02732422 490.9809375 494.73824219 491.48828125 495.47070312 C492.42216318 496.81866478 493.35819842 498.1651384 494.296875 499.50976562 C494.72355469 500.12658203 495.15023438 500.74339844 495.58984375 501.37890625 C495.95972412 501.9107251 496.32960449 502.44254395 496.71069336 502.99047852 C498.59409429 505.92595911 500.2755897 508.96842607 502 512 C482.53756435 512.44486156 463.07616676 512.77937241 443.60969257 512.98443127 C434.56968556 513.08220004 425.53284583 513.21533684 416.49487305 513.43334961 C408.61226887 513.62340124 400.73195825 513.74545466 392.84712666 513.7876814 C388.67488526 513.81235394 384.50920111 513.86979662 380.33907509 514.00887108 C355.05898341 514.81961582 355.05898341 514.81961582 348.37478256 510.1763649 C344.13907363 505.82517435 341.50484811 500.95045887 339.11969566 495.41167641 C337.33068772 491.55838985 334.86567297 488.23622056 332.375 484.8125 C331.47316825 483.50885196 330.57430095 482.20314331 329.6796875 480.89453125 C329.23850586 480.25338379 328.79732422 479.61223633 328.34277344 478.95166016 C326.06091481 475.63508236 323.78054245 472.3174829 321.5 469 C320.58334024 467.66666192 319.66667358 466.33332858 318.75 465 C298.58333333 435.66666667 278.41666667 406.33333333 258.25 377 C257.79641113 376.3402417 257.34282227 375.6804834 256.87548828 375.00073242 C255.95716639 373.66497667 255.0388722 372.32920188 254.12060547 370.9934082 C251.85448843 367.69698255 249.58791941 364.40086973 247.3203125 361.10546875 C244.54490024 357.07166793 241.77190937 353.03620855 239 349 C238.47615723 348.23751953 237.95231445 347.47503906 237.41259766 346.68945312 C230.19462998 336.17889098 223.03961293 325.63092788 216 315 C209.46963066 321.95025772 203.12010661 328.94685825 197.14453125 336.38671875 C195.00125044 338.99847623 192.7761967 341.50365302 190.5 344 C187.40444804 347.39598682 184.44848793 350.86171531 181.5625 354.4375 C177.70291397 359.20996203 173.62800009 363.73109109 169.47265625 368.24609375 C166.25290481 371.83207284 163.24094824 375.56701492 160.21484375 379.31640625 C157.33519113 382.80550916 154.29306124 386.12996921 151.24609375 389.47265625 C148.93812402 392.06962393 146.74444137 394.73404013 144.5625 397.4375 C140.70291397 402.20996203 136.62800009 406.73109109 132.47265625 411.24609375 C129.25290481 414.83207284 126.24094824 418.56701492 123.21484375 422.31640625 C120.33519113 425.80550916 117.29306124 429.12996921 114.24609375 432.47265625 C111.93812402 435.06962393 109.74444137 437.73404013 107.5625 440.4375 C103.70291397 445.20996203 99.62800009 449.73109109 95.47265625 454.24609375 C92.25290481 457.83207284 89.24094824 461.56701492 86.21484375 465.31640625 C83.33519113 468.80550916 80.29306124 472.12996921 77.24609375 475.47265625 C74.93812402 478.06962393 72.74444137 480.73404013 70.5625 483.4375 C66.71278428 488.19775717 62.64962964 492.70838346 58.50390625 497.2109375 C55.10518671 500.9967187 51.9075747 504.92135722 48.71484375 508.8828125 C47 511 47 511 46 512 C44.55710213 512.09295815 43.10970215 512.11746513 41.66381836 512.11352539 C40.28249977 512.11341209 40.28249977 512.11341209 38.87327576 512.11329651 C37.87224319 512.10813522 36.87121063 512.10297394 35.83984375 512.09765625 C34.82024063 512.0962413 33.80063751 512.09482635 32.75013733 512.09336853 C29.47922893 512.08775097 26.20838787 512.0751955 22.9375 512.0625 C20.72591244 512.05748726 18.51432382 512.05292396 16.30273438 512.04882812 C10.86846643 512.03777584 5.43423803 512.02102063 0 512 C0.95214967 510.71955128 1.90581161 509.440227 2.86010742 508.16137695 C3.39101486 507.44883255 3.9219223 506.73628815 4.46891785 506.00215149 C6.29824704 503.60999104 8.26215553 501.39229603 10.3125 499.1875 C13.49283241 495.70884495 16.5373212 492.16586259 19.5 488.5 C23.11149134 484.03579543 26.88660694 479.76997886 30.75390625 475.52734375 C33.06187598 472.93037607 35.25555863 470.26595987 37.4375 467.5625 C41.29708603 462.79003797 45.37199991 458.26890891 49.52734375 453.75390625 C52.74709519 450.16792716 55.75905176 446.43298508 58.78515625 442.68359375 C61.66480887 439.19449084 64.70693876 435.87003079 67.75390625 432.52734375 C70.06187598 429.93037607 72.25555863 427.26595987 74.4375 424.5625 C78.29708603 419.79003797 82.37199991 415.26890891 86.52734375 410.75390625 C89.74709519 407.16792716 92.75905176 403.43298508 95.78515625 399.68359375 C98.66480887 396.19449084 101.70693876 392.87003079 104.75390625 389.52734375 C107.06187598 386.93037607 109.25555863 384.26595987 111.4375 381.5625 C115.29708603 376.79003797 119.37199991 372.26890891 123.52734375 367.75390625 C126.74709519 364.16792716 129.75905176 360.43298508 132.78515625 356.68359375 C135.66480887 353.19449084 138.70693876 349.87003079 141.75390625 346.52734375 C144.06187598 343.93037607 146.25555863 341.26595987 148.4375 338.5625 C152.29708603 333.79003797 156.37199991 329.26890891 160.52734375 324.75390625 C163.74709519 321.16792716 166.75905176 317.43298508 169.78515625 313.68359375 C172.65719477 310.20371639 175.69045057 306.88752705 178.73046875 303.5546875 C181.93138498 299.95159075 184.94609023 296.20761768 187.95703125 292.4453125 C190 290 190 290 192.32421875 287.9296875 C192.87722656 287.29289062 193.43023437 286.65609375 194 286 C193.38967512 281.56055237 190.65447849 278.31536016 188.125 274.75 C187.11703045 273.30740138 186.10922239 271.86468993 185.1015625 270.421875 C184.5849707 269.68646484 184.06837891 268.95105469 183.53613281 268.19335938 C181.1675878 264.8114445 178.83458085 261.40540447 176.5 258 C175.58352706 256.6665335 174.66685977 255.33320056 173.75 254 C164.58333333 240.66666667 155.41666667 227.33333333 146.25 214 C145.79641113 213.3402417 145.34282227 212.6804834 144.87548828 212.00073242 C143.95716639 210.66497667 143.0388722 209.32920188 142.12060547 207.9934082 C139.85448843 204.69698255 137.58791941 201.40086973 135.3203125 198.10546875 C129.81481536 190.10329267 124.32365612 182.09145005 118.84082031 174.07373047 C114.01965501 167.02510096 109.18369427 159.986731 104.34277344 152.95166016 C102.06091481 149.63508236 99.78054245 146.3174829 97.5 143 C96.58334024 141.66666192 95.66667358 140.33332858 94.75 139 C74.58333333 109.66666667 54.41666667 80.33333333 34.25 51 C33.5696167 50.01036255 33.5696167 50.01036255 32.87548828 49.00073242 C31.95716639 47.66497667 31.0388722 46.32920188 30.12060547 44.9934082 C27.85448843 41.69698255 25.58791941 38.40086973 23.3203125 35.10546875 C21.51825456 32.48655198 19.7176086 29.86667268 17.91796875 27.24609375 C15.77887623 24.1312488 13.63425135 21.0202663 11.48828125 17.91015625 C10.30459035 16.19017102 9.12099505 14.47011999 7.9375 12.75 C7.37691895 11.93942139 6.81633789 11.12884277 6.23876953 10.29370117 C5.45348877 9.15058472 5.45348877 9.15058472 4.65234375 7.984375 C4.18820068 7.31116211 3.72405762 6.63794922 3.24584961 5.94433594 C2.01061361 4.01656414 1.00801069 2.05341751 0 0 Z M62 34 C63.10702553 35.74874015 64.21525081 37.49672084 65.32397461 39.24438477 C65.9409874 40.21787369 66.55800018 41.19136261 67.19371033 42.1943512 C69.54830943 45.85167054 72.02948195 49.40255035 74.5625 52.9375 C75.60847968 54.40856503 76.65403478 55.87993201 77.69921875 57.3515625 C78.23853027 58.10985352 78.7778418 58.86814453 79.33349609 59.64941406 C82.19888399 63.69101304 85.03643739 67.75203696 87.875 71.8125 C88.75200562 73.0663147 88.75200562 73.0663147 89.64672852 74.34545898 C90.8371906 76.04744647 92.02753856 77.74951378 93.21777344 79.45166016 C96.14376733 83.6354306 99.0719831 87.81764524 102 92 C103.16667759 93.66665902 104.33334425 95.33332569 105.5 97 C106.36625 98.2375 106.36625 98.2375 107.25 99.5 C109 102 110.75 104.5 112.5 107 C113.07733887 107.8247583 113.65467773 108.6495166 114.24951172 109.49926758 C115.41784967 111.16834507 116.58614384 112.83745322 117.75439453 114.5065918 C120.64513489 118.63662338 123.53659854 122.76614446 126.4296875 126.89453125 C133.31728062 136.72500507 140.18294378 146.57042296 147.03417969 156.42626953 C153.09800618 165.14686679 159.18658311 173.84996444 165.28222656 182.54833984 C168.1896209 186.69786428 171.09468001 190.84902306 174 195 C175.16665575 196.66667431 176.33332241 198.33334098 177.5 200 C179.83333333 203.33333333 182.16666667 206.66666667 184.5 210 C185.07733887 210.8247583 185.65467773 211.6495166 186.24951172 212.49926758 C187.41784967 214.16834507 188.58614384 215.83745322 189.75439453 217.5065918 C192.64513489 221.63662338 195.53659854 225.76614446 198.4296875 229.89453125 C205.31728062 239.72500507 212.18294378 249.57042296 219.03417969 259.42626953 C225.09800618 268.14686679 231.18658311 276.84996444 237.28222656 285.54833984 C240.1896209 289.69786428 243.09468001 293.84902306 246 298 C247.16665575 299.66667431 248.33332241 301.33334098 249.5 303 C251.83333333 306.33333333 254.16666667 309.66666667 256.5 313 C257.07733887 313.8247583 257.65467773 314.6495166 258.24951172 315.49926758 C259.41784967 317.16834507 260.58614384 318.83745322 261.75439453 320.5065918 C264.64513489 324.63662338 267.53659854 328.76614446 270.4296875 332.89453125 C277.31728062 342.72500507 284.18294378 352.57042296 291.03417969 362.42626953 C297.09800618 371.14686679 303.18658311 379.84996444 309.28222656 388.54833984 C312.1896209 392.69786428 315.09468001 396.84902306 318 401 C319.16665575 402.66667431 320.33332241 404.33334098 321.5 406 C328.5 416 335.5 426 342.5 436 C343.07814453 436.82588623 343.65628906 437.65177246 344.25195312 438.50268555 C345.41224061 440.16030854 346.57239802 441.81802259 347.73242188 443.47583008 C350.74560018 447.78164154 353.7613908 452.08558972 356.78125 456.38671875 C357.71517578 457.71799805 357.71517578 457.71799805 358.66796875 459.07617188 C359.84680665 460.75645575 361.02643091 462.43618836 362.20703125 464.11523438 C362.74714844 464.88544922 363.28726562 465.65566406 363.84375 466.44921875 C364.54274414 467.44441528 364.54274414 467.44441528 365.25585938 468.4597168 C367 471 367 471 367.99661255 473.25660706 C369.41370317 476.06450481 370.62950235 477.91519408 373 480 C378.07347692 481.27728797 383.05915342 481.05012265 388.2421875 480.87890625 C389.73572952 480.86210439 391.2293214 480.84930064 392.72293091 480.84031677 C396.6402461 480.80607227 400.55452196 480.71778463 404.47064209 480.61798096 C408.47219727 480.52564441 412.47424738 480.48475246 416.4765625 480.43945312 C424.31909793 480.3431432 432.15917016 480.18969981 440 480 C438.88228037 478.23546305 437.76350659 476.47159381 436.64428711 474.70800781 C436.0213829 473.72568176 435.3984787 472.74335571 434.75669861 471.73126221 C432.78003087 468.6579986 430.71416251 465.70310744 428.5625 462.75 C424.05166827 456.50876607 419.64109302 450.20095597 415.25 443.875 C410.13718645 436.51223633 405.01789295 429.15429257 399.875 421.8125 C399.02083496 420.59312744 399.02083496 420.59312744 398.14941406 419.34912109 C397.00562281 417.71657179 395.86174301 416.08408451 394.71777344 414.45166016 C391.8103791 410.30213572 388.90531999 406.15097694 386 402 C384.83334425 400.33332569 383.66667759 398.66665902 382.5 397 C380.16666667 393.66666667 377.83333333 390.33333333 375.5 387 C374.92266113 386.1752417 374.34532227 385.3504834 373.75048828 384.50073242 C372.58215033 382.83165493 371.41385616 381.16254678 370.24560547 379.4934082 C367.35486511 375.36337662 364.46340146 371.23385554 361.5703125 367.10546875 C354.68271938 357.27499493 347.81705622 347.42957704 340.96582031 337.57373047 C334.90199382 328.85313321 328.81341689 320.15003556 322.71777344 311.45166016 C319.8103791 307.30213572 316.90531999 303.15097694 314 299 C312.83334425 297.33332569 311.66667759 295.66665902 310.5 294 C308.16666667 290.66666667 305.83333333 287.33333333 303.5 284 C302.92266113 283.1752417 302.34532227 282.3504834 301.75048828 281.50073242 C300.58215033 279.83165493 299.41385616 278.16254678 298.24560547 276.4934082 C295.35486511 272.36337662 292.46340146 268.23385554 289.5703125 264.10546875 C282.68271938 254.27499493 275.81705622 244.42957704 268.96582031 234.57373047 C262.90199382 225.85313321 256.81341689 217.15003556 250.71777344 208.45166016 C247.8103791 204.30213572 244.90531999 200.15097694 242 196 C240.83334425 194.33332569 239.66667759 192.66665902 238.5 191 C231.5 181 224.5 171 217.5 161 C216.6339917 159.76286255 216.6339917 159.76286255 215.75048828 158.50073242 C214.58215033 156.83165493 213.41385616 155.16254678 212.24560547 153.4934082 C209.35486511 149.36337662 206.46340146 145.23385554 203.5703125 141.10546875 C196.68271938 131.27499493 189.81705622 121.42957704 182.96582031 111.57373047 C176.90199382 102.85313321 170.81341689 94.15003556 164.71777344 85.45166016 C161.23222575 80.47697712 157.74952143 75.50030226 154.26708984 70.5234375 C151.25405148 66.2178862 148.23844062 61.91417018 145.21875 57.61328125 C144.28482422 56.28200195 144.28482422 56.28200195 143.33203125 54.92382812 C142.15319335 53.24354425 140.97356909 51.56381164 139.79296875 49.88476562 C138.98279297 48.72944336 138.98279297 48.72944336 138.15625 47.55078125 C137.69025391 46.88731689 137.22425781 46.22385254 136.74414062 45.5402832 C135 43 135 43 134.00338745 40.74339294 C132.58629683 37.93549519 131.37049765 36.08480592 129 34 C123.92652308 32.72271203 118.94084658 32.94987735 113.7578125 33.12109375 C112.26427048 33.13789561 110.7706786 33.15069936 109.27706909 33.15968323 C105.3597539 33.19392773 101.44547804 33.28221537 97.52935791 33.38201904 C93.52780273 33.47435559 89.52575262 33.51524754 85.5234375 33.56054688 C77.68090207 33.6568568 69.84082984 33.81030019 62 34 Z " fill="white" transform="translate(5,0)"/>
</svg>